<svg xmlns="http://www.w3.org/2000/svg"><defs><font horiz-adv-x="1024"><font-face font-family="Anders" font-weight="400" units-per-em="2048" ascent="1638" descent="-410" x-height="1638" cap-height="1638" bbox="-2 -133 1901.08 2048" underline-thickness="102" underline-position="-102" unicode-range="U+000D-007A"/><glyph glyph-name=".notdef" horiz-adv-x="1171" d="M256 129h512v1792h-512v-1792zm-127-129v2048h768v-2048h-768z"/><glyph glyph-name=".null" horiz-adv-x="0"/><glyph glyph-name="nonmarkingreturn"/><glyph glyph-name="NULL"/><glyph glyph-name="NULL"/><glyph glyph-name="space"/><glyph glyph-name="comma" unicode=","/><glyph glyph-name="hyphen" unicode="-"/><glyph glyph-name="period" unicode="." horiz-adv-x="659" d="M328 82q0 29 19.5 48.5t48 19.5 48-19.5 19.5-48.5-19.5-48.5-48-19.5-48 19.5-19.5 48.5z"/><glyph glyph-name="slash" unicode="/"/><glyph glyph-name="zero" unicode="0"/><glyph glyph-name="one" unicode="1"/><glyph glyph-name="two" unicode="2"/><glyph glyph-name="three" unicode="3"/><glyph glyph-name="four" unicode="4"/><glyph glyph-name="five" unicode="5"/><glyph glyph-name="six" unicode="6"/><glyph glyph-name="seven" unicode="7"/><glyph glyph-name="eight" unicode="8"/><glyph glyph-name="nine" unicode="9"/><glyph glyph-name="colon" unicode=":"/><glyph glyph-name="semicolon" unicode=";"/><glyph glyph-name="less" unicode="<"/><glyph glyph-name="equal" unicode="="/><glyph glyph-name="greater" unicode=">"/><glyph glyph-name="question" unicode="?"/><glyph glyph-name="at" unicode="@"/><glyph glyph-name="A" unicode="A" horiz-adv-x="1468" d="M1124 31q0-26-32-31-20 0-29 20l-492 1242-477-1242q-8-20-31-20l-10 2q-20 6-20 21 1 15 65 183t169 443 161 417q55 142 99 258t75 195 39 99 31 20q24 0 30-20t38-100q32-78 77-194t101-255 113-281 111-278q54-134 95-240t67-172 25-72q0-6-9-16t-28-10-24 20l-596 1504-68-174q8-16 35-82t66-161 83-211 92-234q66-166 155-395 89-230 89-236z"/><glyph glyph-name="B" unicode="B" horiz-adv-x="1495" d="M1145 733q-115 115-277 115-8 0-10 2h-416v-787h426q162 0 277 115 115 116 115 278t-115 277zm-316 844h-387v-666h387q135 1 234 99 100 98 100 233t-98 235q-98 99-236 99zm-415-1575q-31 0-31 39v1536h-135v-1546q0-15-11-23t-23-8-24 9q-10 9-10 22v1577q0 31 33 30h616q168 0 283-117t115-278q-1-113-59-208t-162-144q144-47 230-168 87-121 87-266 0-187-133-321t-322-134h-454z"/><glyph glyph-name="C" unicode="C" horiz-adv-x="1392" d="M1376 231q0-12-12-24-221-207-556-207-158 0-308 65-305 132-435 435-65 150-65 320t65 319q132 305 435 435 150 65 319 64 225 0 427-117 65-38 118-89 12-12 12-24t-11-24q-11-10-23-10t-46 26q-221 174-477 175-156 0-293-59-280-120-403-404-59-137-59-293t58-293q121-279 404-403 136-59 288-59t273 50 234 142q10 10 22 10t23-11q10-12 10-24z"/><glyph glyph-name="D" unicode="D" horiz-adv-x="1656" d="M440 68h119q59 0 119 2 156 2 293 61t239 161 162 237q60 136 60 292t-60 294q-119 279-400 401-138 59-294 59l-238-2v-1505zm1055 752q-1-169-65-317-133-305-435-433-150-63-317-66l-268-2q-14 0-24 10-9 10-9 25v1536h-141v-1540q0-33-33-33-14 0-23 10-8 10-8 23v1571q0 14 9 24t24 10h473q168 0 317-64 305-132 435-436 64-150 65-318z"/><glyph glyph-name="E" unicode="E" horiz-adv-x="1259" d="M1225 35q0-11-8-23t-23-12h-1004q-14 0-23 10t-9 25v1573q0 14 10 22t22 8h1004q12 0 21-9 22-22 0-43-9-9-21-9h-975v-637h760q12 0 21-9 23-23 0-43-9-9-21-9h-756l-2-140h766q33 0 33-32 0-13-10-23t-23-10h-768v-604h975q12 0 22-12t9-23z"/><glyph glyph-name="F" unicode="F" horiz-adv-x="1214" d="M956 940q33 0 33-31t-33-30h-755v-136h766q14 0 23-10t9-23q0-14-10-24t-22-10h-766v-643q0-33-33-33-12 0-23 10-10 10-10 23v1575q0 31 33 30h1003q33 1 33-30t-33-31h-970v-637h755z"/><glyph glyph-name="G" unicode="G" horiz-adv-x="1624" d="M139 820q0 170 65 319 132 305 435 435 150 64 308 64 335-1 554-206 12-12 12-24t-10-24-22-12-23 10q-233 193-500 193-156 0-292-59-136-58-240-162t-164-242-59-293q0-156 59-293 120-280 404-403 137-59 282-59 280-1 502 182l2 434h-780q-14 0-24 10-9 10-9 24 0 32 33 34h811q33 0 33-35l-3-482q0-14-10-24-221-207-556-207-159 0-309 65-305 132-434 435-65 150-65 320zm1366 95q0-12-8-22t-22-10h-799q-33 0-33 32 0 15 10 23t23 8h799q12 0 21-10t9-21z"/><glyph glyph-name="H" unicode="H" horiz-adv-x="1652" d="M1311 741v138h-959l-2-138h961zm-963-708q0-33-30-33t-31 33v1575q0 12 9 21t21 9q11 0 21-9t10-21v-670h963v670q0 14 11 22 12 8 24 8t22-9 10-21v-1575q0-13-10-23t-22-10q-35 0-35 33v643h-963v-643z"/><glyph glyph-name="I" unicode="I" horiz-adv-x="624" d="M317 1638q33 0 33-30v-1577q0-15-10-23t-22-8-22 9q-9 9-9 22v1577q0 12 9 21t21 9z"/><glyph glyph-name="J" unicode="J" horiz-adv-x="1286" d="M1018 508q0-209-148-359t-358-149q-100 0-194 39t-164 111q-21 21-4 36 16 16 26 16t35-21q134-118 311-118t308 131q130 131 128 314v1100q0 12 10 21t21 9q13 0 21-9t8-21v-1100z"/><glyph glyph-name="K" unicode="K" horiz-adv-x="1302" d="M1128 27q0-11-11-19t-24-8-22 12l-551 770-303-303v-434q0-12-17-27t-32-1q-16 14-16 28v1552q0 15 10 23t22 8 22-9 11-22v-753l784 786q9 10 21 10t27-17-5-38l-827-829v-189q28 28 73 76 46 49 82 84t86 84 65 49 26-12q40-59 236-326 197-266 270-375 73-110 73-120z"/><glyph glyph-name="L" unicode="L" horiz-adv-x="1230" d="M1182 31q0-31-33-31h-973q-31 0-31 31v1566q-1 11 9 21t22 10 22-9 9-22v-1536h137v1545q0 12 10 22t23 10q33 0 33-32v-1545h739q33 1 33-30z"/><glyph glyph-name="M" unicode="M" horiz-adv-x="2174" d="M283 1262q0 38 32 38 15 0 27-17t80-109q82-111 444-617 363-506 363-522 0-15-10-25-11-10-25-10t-23 12l-823 1155v-1126q0-15-10-23t-22-8-23 9q-10 9-10 22v1221zm4 340q0 30 30 30 18 0 27-14l750-1045 749 1053q7 12 21 12t26-8 11-19q0-11-3-14v-1566q0-11-9-21t-21-10-21 9q-8 9-8 22v1478l-706-989q9-14 37-53l66-91q38-52 140-185t101-153q-1-18-11-28t-24-10-23 12l-1126 1569q-6 8-6 21z"/><glyph glyph-name="N" unicode="N" horiz-adv-x="1744" d="M1223 28q-1-8-11-18t-24-10-23 12l-821 1153v-1132q0-13-10-23t-23-10q-33 0-32 33v1235q0 10 10 20t22 10 25-14q49-70 142-197 94-128 172-238t325-454q248-343 248-367zm215-28q-16 0-25 12l-1126 1567q-4 4-4 18 0 33 30 33 12 0 25-14l1069-1487v1479q0 12 9 21 10 9 22 9t21-9 9-21l2-1575q0-33-32-33z"/><glyph glyph-name="O" unicode="O" horiz-adv-x="1849" d="M1624 819q0 156-59 293-121 281-404 404-137 59-293 59t-293-59q-280-120-403-404-59-137-59-293t59-293q120-279 403-403 137-59 293-59t293 58q281 122 404 404 59 137 59 293zm64 0q0-169-65-319-132-305-435-435-150-65-320-65t-320 65q-305 132-434 435-65 150-65 320t65 319q132 305 435 435 149 64 319 64t320-64q305-131 435-435 65-150 65-320z"/><glyph glyph-name="P" unicode="P" horiz-adv-x="1306" d="M803 1573h-383v-664h383q134 0 233 99t99 232q-1 133-99 233t-233 100zm280-607q-115-118-280-118h-383v-807q0-15-11-23t-23-8-24 9q-10 9-10 22v1532h-133v-1542q0-15-10-23-11-8-23-8t-21 9-9 22v1575q0 33 30 32h617q163 0 279-116t116-278q0-160-115-278z"/><glyph glyph-name="Q" unicode="Q" horiz-adv-x="1949" d="M156 826q0 168 63 316t174 259 258 174 315 63 317-63q305-130 433-431 64-149 64-317 0-324-226-561 8-12 85-115t76-117q-2-34-32-34-18 0-27 13t-45 63-83 114q-47 66-174 241t-126 189q3 33 32 33 18 0 26-14l230-320q198 210 198 508 0 154-59 290-120 277-399 399-136 59-290 59t-289-59q-278-121-398-399-59-136-59-290 0-153 58-289 122-277 399-399 136-59 292-59t334 78q-8 12-36 49t-64 87-75 104-95 135-55 90q1 10 10 20 10 10 26 10t23-12 41-59 81-114q47-68 101-142t128-181q75-107 75-116-1-9-10-19t-21-10q-27 0-75 79-11 17-18 27-176-92-359-92-182 0-330 64t-258 174q-110 111-173 258t-63 316z"/><glyph glyph-name="R" unicode="R" horiz-adv-x="1368" d="M434 1577v-616h365q128 0 218 92 89 92 89 218 0 127-91 217t-216 89h-365zm701-1577q-20 0-29 18l-311 678h-361v-655q0-15-10-23t-22-8-22 9q-9 9-9 22v1536h-133v-1546q0-15-10-23t-23-8q-12 0-22 9-9 9-9 22v1577q0 31 31 30h594q157 0 263-104 107-104 107-255 0-150-92-255t-235-125q-10-2-22-2h-378l-2-137h375q19 0 27-18 48-99 90-193 43-95 140-302t95-218q0-29-32-29z"/><glyph glyph-name="S" unicode="S" horiz-adv-x="1288" d="M1165 440q0-210-168-325t-360-115q-359 0-627 252-12 12-12 23t10 23 22 11q12 0 23-10 127-106 263-171t316-65 315 96q153 106 153 287 0 141-133 231-89 61-291 113-78 19-153 33-168 31-260 79-212 109-212 342 0 91 48 168t125 127q159 103 360 102t405-105q87-46 116-84 3-4 3-15t-10-21-22-11q-12 1-44 23-102 72-220 109-120 38-214 38-94 1-176-19-181-43-263-166-44-65-44-159 0-95 45-157 81-112 286-167 94-25 194-47t194-50q332-92 331-370z"/><glyph glyph-name="T" unicode="T" horiz-adv-x="1384" d="M676 0q-33 0-33 31v1345h-477q-12 0-22 10-9 10-9 22t8 24 23 12h1018q14 0 22-12t8-23q0-13-9-23t-21-10h-475v-1345q-1-11-11-21t-22-10zm528 1608q0-12-9-22t-21-9h-1008q-12 0-22 9-9 10-9 22t9 21 22 9h1008q12 0 21-9t9-21z"/><glyph glyph-name="U" unicode="U" horiz-adv-x="1529" d="M1239 406q0-167-117-286-117-120-280-120h-158q-168 0-287 119t-118 287v1202q0 12 9 21t21 9q11 0 21-9t10-21v-1202q0-138 102-242 103-103 242-103h158q138 0 237 103t99 242v1202q0 12 9 21t21 9 22-9 9-21v-1202z"/><glyph glyph-name="V" unicode="V" horiz-adv-x="1429" d="M0 1604q0 34 37 34 19 0 24-20l476-1237 489 1237q6 20 24 20 36 0 37-30 0-9-54-147t-97-250q-43-111-90-229t-92-232q-145-369-183-455l66-174 594 1497q7 20 25 20t27-9 9-17-92-247-177-448q-85-207-140-347t-124-312-93-238q-8-20-29-20-6 4-15 8t-19 25-81 209q-70 188-296 767t-226 595z"/><glyph glyph-name="W" unicode="W" horiz-adv-x="2166" d="M309 1628q33 0 33-31v-1130l823 1155q7 14 23 14 34 0 35-32 0-15-168-250l-248-347q-223-312-332-462-111-150-129-178-18-29-35-29-32 0-32 35v1224q0 11 9 21t21 10zm1520-20q0 30 33 30 12 0 21-9t9-21v-1577q0-11-9-21t-23-10-23 12l-750 1051-749-1043q-8-14-24-14t-24 10q-9 10-9 23-1 13 119 181 120 167 228 319t298 411q316 433 487 674 7 12 21 12t25-9 11-20q0-32-239-345-70-92-105-144l703-987v1477z"/><glyph glyph-name="X" unicode="X" horiz-adv-x="1579" d="M1194 29q0-9-10-19t-24-10-23 12l-500 697-498-697q-10-12-23-12t-24 9q-10 9-10 19t35 63q35 52 88 128t118 163 121 166q57 79 101 138 43 59 55 76-167 215-343 467-175 252-216 311-41 60-41 70t9 19 23 9 25-12q56-88 597-829 540-742 540-768zm49 1609q33 0 33-30 0-15-81-129-81-115-167-237t-150-206q-65-85-77-102l635-885q8-8 8-20 0-13-11-21t-25-8-24 12q-38 64-168 241-783 1070-874 1207-92 136-92 146t11 19 23 9 23-12l455-633 457 637q8 12 24 12z"/><glyph glyph-name="Y" unicode="Y" horiz-adv-x="1392" d="M803 31q0-11-9-21-10-10-22-10t-21 9-10 22v544q-36 52-171 234-134 181-353 483t-219 316 11 22 25 8 23-12l740-1022q6-10 6-18v-555zm443 1607q16 0 26-9t10-19-100-169-232-342q-131-183-141-199-11-16-29-15-18 0-30 16l-492 684q-6 7-6 19t11 21 23 9 23-12l469-651 445 653q8 14 23 14z"/><glyph glyph-name="Z" unicode="Z" horiz-adv-x="1441" d="M1239 1259q0-12-8-20l-883-1176h842q33 0 33-32-1-15-11-23t-22-8h-903q-12 0-25 9-12 9-12 23t8 21l922 1225q8 12 23 12t26-9q10-10 10-22zm-33 379q33 0 33-30 0-10-2-14t-6-11l-1168-1567q-10-12-24-12-35 0-35 33 0 10 120 172 120 163 339 460t383 513q164 215 222 293t75 100l-1110-2q-14 0-24 10-9 10-9 25 0 30 33 30h1173z"/><glyph glyph-name="bracketleft" unicode="["/><glyph glyph-name="backslash" unicode="\"/><glyph glyph-name="bracketright" unicode="]"/><glyph glyph-name="asciicircum" unicode="^"/><glyph glyph-name="underscore" unicode="_"/><glyph glyph-name="grave" unicode="`"/><glyph glyph-name="a" unicode="a" horiz-adv-x="1507" d="M1092 0q-20 0-29 20l-492 1242-477-1242q-8-20-31-20l-10 2q-20 6-20 31 0 7 116.5 309.5t171 445 108.5 281.5 98 255 75 194.5 39 101.5q8 18 30.5 18t29.5-20 39-99 77-195 101.5-255 112.5-281.5 110.5-277.5 95.5-240.5 66.5-171 25.5-72.5-9-16.5-28-9.5-24 20l-596 1504-68-174q30-60 130-315t245-620.5 145-387.5-32-27z"/><glyph glyph-name="b" unicode="b" horiz-adv-x="1540" d="M1153 733q-115 115-276 115-8 0-11 2h-415v-787h426q161 0 276 115.5t115 277.5-115 277zm-80 745.5q-98 98.5-235 98.5h-387v-666h387q136 0 234.5 98.5t98.5 234.5-98 234.5zm-651-1476.5q-31 0-31 39v1536h-135v-1546q0-14-11.5-22.5t-23.5-8.5-22.5 9-10.5 22v1577q0 31 33 30h617q168 0 282.5-118t114.5-277q0-113-58.5-208t-162.5-144q144-47 230.5-167.5t86.5-266.5q0-189-133-322t-321-133h-455z"/><glyph glyph-name="c" unicode="c" horiz-adv-x="1454" d="M1376 231.5q0-12.5-12-24.5-221-207-556-207-159 0-308.5 64.5t-260 175-175 260-64.5 319.5 64.5 319.5 175 260 260 175 319.5 64.5q229 0 360.5-77.5t184.5-128.5q12-12 12-24.5t-11-23-23-10.5-46 26q-221 174-483 175-150 0-287-59.5t-240.5-163-163-240.5-59.5-292.5 59.5-293 163-241 241-163 288.5-59.5 272 50.5 234 142.5q10 10 22.5 10t22.5-11 10-23.5z"/><glyph glyph-name="d" unicode="d" horiz-adv-x="1671" d="M449 68h89q89 0 148 2 156 2 293 61t239.5 160.5 162 238 59.5 292-59.5 293.5-161 239.5-239.5 161-294 59.5l-237-2v-1505zm1054 752q0-169-64.5-317.5t-175-259-260-174-317.5-65.5l-268-2q-14 0-23.5 10.5t-9.5 24.5v1536h-141v-1540q0-33-33-33-14 0-22.5 10t-8.5 23v1571q0 14 9.5 24t23.5 10h473q168 0 317.5-64.5t260-175 175-260 64.5-318.5z"/><glyph glyph-name="e" unicode="e" horiz-adv-x="1355" d="M166 1608q0 30 33 30h1003q12 0 21.5-9t9.5-21.5-9.5-21.5-21.5-9h-975v-637h760q12 0 21.5-9t9.5-21.5-9.5-21.5-21.5-9h-756l-2-140h766q33 0 33-32 0-12-10-22.5t-23-10.5h-768v-604h975q12 0 21.5-11.5t9.5-23.5-8-23.5-23-11.5h-1003q-14 0-23.5 10t-9.5 25v1573z"/><glyph glyph-name="f" unicode="f" horiz-adv-x="1316" d="M965 940q32 0 32-31t-32-30h-756v-136h766q14 0 23.5-10t9.5-23-10.5-23.5-22.5-10.5h-766v-643q0-33-33-33-12 0-22.5 10t-10.5 23v1575q0 31 33 30h1004q32 0 32-30.5t-32-30.5h-971v-637h756z"/><glyph glyph-name="g" unicode="g" horiz-adv-x="1689" d="M147 819q0 170 64.5 319.5t175.5 260 261 175 308 64.5q336 0 553-206 24-24 8-42t-28-18-23 10q-233 193-499 193-156 0-293-59.5t-240.5-163-163-240.5-59.5-292.5 59.5-293 163-241 240-163 282.5-59.5q280 0 502 183l2 434h-780q-14 0-23.5 10t-9.5 24 9.5 24 23.5 10h811q33 0 33-35l-2-482q0-14-11-24-221-207-555-207-158 0-308 64.5t-261 175-175.5 260-64.5 319.5zm1366 96.5q0-12.5-8-22.5t-22-10h-799q-33 0-33 32 0 14 10.5 22.5t22.5 8.5h799q12 0 21-9t9-21.5z"/><glyph glyph-name="h" unicode="h" horiz-adv-x="1509" d="M1167 741v138h-958l-2-138h960zm68-708q0-12-10.5-22.5t-23.5-10.5-23.5 9-10.5 24v643h-962v-643q0-33-31-33-14 0-22.5 10t-8.5 23v1575q0 12 9.5 21t21.5 9 21.5-9 9.5-21v-670h962v670q0 14 11.5 22t23.5 8 22.5-9 10.5-21v-1575z"/><glyph glyph-name="i" unicode="i" horiz-adv-x="481" d="M207 31q0-14-10.5-22.5t-22.5-8.5-21.5 9-9.5 22v1577q0 12 9.5 21t21.5 9 22.5-8 10.5-22v-1577z"/><glyph glyph-name="j" unicode="j" horiz-adv-x="1296" d="M1026 508q0-208-148-358t-358-150q-100 0-194.5 39t-163.5 111q-10 10-10 20t11 21.5 21 11.5 91.5-70 228.5-70q202 0 332.5 130.5t130.5 314.5v1100q0 12 9 21t21.5 9 20.5-9 8-21v-1100z"/><glyph glyph-name="k" unicode="k" horiz-adv-x="1312" d="M1137 27q0-10-11.5-18.5t-24.5-8.5-22 12l-551 770-303-303v-434q0-12-10-21.5t-22.5-9.5-22.5 8.5-10 22.5v1552q0 14 10 22.5t22.5 8.5 22.5-9 10-22v-753l785 786q10 10 21 10t21.5-11 10.5-22-10-22l-828-829v-189q27 27 75 78t132.5 133 99.5 82q14 0 25-12 24-36 131-182t178.5-244 132-183 99.5-143.5 39-68.5z"/><glyph glyph-name="l" unicode="l" horiz-adv-x="1306" d="M1190 30.5q0-30.5-33-30.5h-973q-31 0-30 31v1566q0 12 9 21.5t21.5 9.5 21.5-9 9-22v-1536h137v1545q0 12 10.5 22t22.5 10q33 0 33-32v-1545h739q33 0 33-30.5z"/><glyph glyph-name="m" unicode="m" horiz-adv-x="2033" d="M1087 28q0-9-10-18.5t-24-9.5-23 12l-823 1155v-1126q0-14-10.5-22.5t-22.5-8.5-22.5 9.5-10.5 21.5v1221q0 14 8.5 26t24.5 12 28-17 57.5-79.5 110-152.5 143.5-199 159-220.5 154.5-217 133-188.5 93-136 34.5-62zm672 1583q0-11-2-14v-1566q0-12-9-21.5t-21.5-9.5-20.5 9-8 22v1478l-707-989q8-14 37-53t67-91 81-108.5 101-140.5 58-96-10-21.5-24-9.5-23 12l-1126 1569q-17 23-3.5 37t29.5 14 25-14l749-1045 750 1053q8 12 21 12t24.5-8 11.5-19z"/><glyph glyph-name="n" unicode="n" horiz-adv-x="1605" d="M1083 28q0-9-10-18.5t-24-9.5-23 12l-821 1153v-1132q0-12-10.5-22.5t-22.5-10.5q-33 0-33 33v1235q0 10 10.5 20t22.5 10 25-14q28-40 131.5-183t181.5-252.5 158-220 154.5-216 133-188.5 93-135 34.5-61zm215-28q-16 0-24 12l-1127 1567q-4 4-4 18 0 33 31 33 12 0 25-14l1069-1487v1479q0 12 9 21t21.5 9 21.5-9 9-21l2-1575q0-33-33-33z"/><glyph glyph-name="o" unicode="o" horiz-adv-x="1904" d="M1673 819.5q0 155.5-59.5 292.5t-162.5 240.5-240.5 163-293 59.5-293-59.5-240.5-163-162.5-240.5-59.5-292.5 59.5-293 162.5-241 240.5-163 293-59.5 293 59.5 240.5 163 162.5 241 59.5 293zm64-.5q0-170-64.5-319.5t-175.5-260-260.5-175-319-64.5-319 64.5-260.5 175-175.5 260-64.5 319.5 64.5 319.5 175.5 260 260.5 175 319 64.5 319-64.5 260.5-175 175.5-260 64.5-319.5z"/><glyph glyph-name="p" unicode="p" horiz-adv-x="1335" d="M1143 1241.5q0 136.5-99 234t-233 97.5h-383v-664h383q133 0 232.5 98t99.5 234.5zm-52-276.5q-115-117-280-117h-383v-807q0-14-11-22.5t-23.5-8.5-23 9.5-10.5 21.5v1532h-133v-1542q0-14-10-22.5t-22.5-8.5-21.5 9-9 22v1575q0 33 31 32h616q162 0 278.5-116.5t116.5-278-115-278.5z"/><glyph glyph-name="q" unicode="q" horiz-adv-x="1980" d="M164 826q0 169 63.5 316.5t174 258 258 174 315.5 63.5 316.5-63.5 259-173 174-258 63.5-316.5q0-324-225-561 8-12 34.5-48t75.5-103.5 49-81.5-9-23.5-24-9.5-25 13-45.5 62.5-82.5 115-100.5 138-126 177-72.5 117.5q0 12 8.5 21t24.5 9 24-14l230-320q198 210 198 508 0 154-59 290t-160.5 237.5-238 161-290 59.5-289.5-59.5-237.5-161-161-237.5-59.5-289.5 59.5-290 161-237.5 237.5-160.5 292-59.5 334 78q-8 12-36 49t-63.5 87-74.5 104.5-94.5 133-55.5 89.5q0 12 9.5 22t25.5 10 24-12 41-59 80-114 100.5-141.5 128-179.5 74.5-117q0-11-9-20.5t-29-9.5-84 106q-176-92-359-92-184 0-331.5 63.5t-257 174-173 258-63.5 316.5z"/><glyph glyph-name="r" unicode="r" horiz-adv-x="1378" d="M1023.5 1488.5q-90.5 88.5-216.5 88.5h-365v-616h365q128 0 217.5 91.5t89.5 219.5-90.5 216.5zm152.5-1459.5q0-29-33-29-20 0-29 18l-311 678h-361v-655q0-14-10-22.5t-22.5-8.5-21.5 9.5-9 21.5v1536h-133v-1546q0-14-10.5-22.5t-22.5-8.5-21.5 9-9.5 22v1577q0 31 31 30h594q157 0 264-105t107-254-92.5-254.5-235.5-125.5q-10-2-13-2h-386l-2-137h374q19 0 27-18t34.5-75 62.5-134.5 76-163.5 73.5-160 56.5-124 23-56z"/><glyph glyph-name="s" unicode="s" horiz-adv-x="1327" d="M998 115q-167-115-360-115-363 0-628 252-12 12-12 23t10 22.5 22 11.5 23-10q127-106 263.5-171t315.5-65 323.5 101.5 144.5 281.5q0 141-130 228.5t-375.5 135-394.5 124.5-149 297q0 196 164.5 302.5t362.5 106.5q127 0 281-49.5t237-128.5q12-12 12-24t-10.5-22.5-18.5-10.5-19 6-24.5 15.5-25 16.5-17.5 11q-202 121-395 121t-338-87-145-257q0-238 213-293t312-77.5 193.5-49.5 213-101 118.5-277-167-318z"/><glyph glyph-name="t" unicode="t" horiz-adv-x="1394" d="M1223 1409q0-12-9.5-22.5t-21.5-10.5h-475v-1345q0-12-10.5-21.5t-22.5-9.5-22.5 8-10.5 23v1345h-477q-12 0-21.5 10.5t-9.5 22.5 8.5 23.5 22.5 11.5h1018q14 0 22.5-11.5t8.5-23.5zm-11 198.5q0-12.5-9-21.5t-21-9h-1008q-12 0-21.5 9t-9.5 21.5 9.5 21.5 21.5 9h1008q12 0 21-9t9-21.5z"/><glyph glyph-name="u" unicode="u" horiz-adv-x="1374" d="M1100 406q0-167-117.5-286.5t-280.5-119.5h-157q-170 0-288 119.5t-118 286.5v1202q0 12 9.5 21t21.5 9 21.5-9 9.5-21v-1202q0-140 102.5-242.5t241.5-102.5h157q139 0 237.5 102.5t98.5 242.5v1202q0 12 9.5 21t21.5 9 21.5-9 9.5-21v-1202z"/><glyph glyph-name="v" unicode="v" horiz-adv-x="1507" d="M1292 1612q0-8-25.5-73.5t-66.5-171-94-240-110.5-276.5-113-281.5-124-310-92.5-239.5q-8-20-29-20-6 4-15.5 8t-15.5 18-36.5 94.5-74.5 195-98.5 254-110 281.5-106.5 277.5-115.5 304-64.5 178.5q0 9 9 18t28 9 24-20l476-1237 489 1237q6 20 24 20 36 0 37-30 0-9-54-147t-97-249.5-90-229.5-151-382-124-305l66-174 594 1497q7 20 25 20t27-9 9-17z"/><glyph glyph-name="w" unicode="w" horiz-adv-x="2027" d="M164 338q-25 0-25 35v1224q0 12 9.5 21.5t21.5 9.5 22.5-8 10.5-23v-1130l823 1155q8 14 24 14 34 0 33-32 0-19-314.5-457.5t-430.5-598-133-185.5q-16-25-41-25zm1589-307q0-12-9.5-21.5t-23.5-9.5-22 12l-750 1051-749-1043q-7-14-23-14t-25.5 10.5-9.5 19.5 45 75.5 120 171 170 237.5 197.5 273.5 203 278.5 182.5 252 140.5 195 70.5 99 25 18 24.5-9 11.5-20-23.5-46-69-99.5-137-187-114.5-156.5l703-987v1477q0 14 10 22t22.5 8 21.5-9 9-21v-1577z"/><glyph glyph-name="x" unicode="x" horiz-adv-x="1619" d="M1194 29q0-10-10-19.5t-24-9.5-23 12l-500 697-498-697q-10-12-23-12t-23.5 9-10.5 19 35 62.5 88 128.5 117.5 163 122 166 100.5 138 55 76q-172 222-386 530t-214 318 9 19 23.5 9 24.5-12q48-75 274-384.5t328.5-451 198.5-275.5 171-239.5 120-171 45-75.5zm250-.5q0-12.5-11.5-20.5t-25.5-8-23 12q-31 52-264 372.5t-551.5 758.5-318.5 456q0 17 11 26t23.5 9 22.5-12l455-633 457 637q8 12 22 12 35 0 35-29t-196.5-297-278.5-378l635-885q8-8 8-20.5z"/><glyph glyph-name="y" unicode="y" horiz-adv-x="1490" d="M803 31q0-12-9.5-21.5t-21.5-9.5-21.5 9-9.5 22v544q-16 23-77.5 106t-144.5 195.5-174 238.5-219 302.5-128 190.5 11 22 25 8 23-12l740-1022q6-10 6-18v-555zm479 1579q0-10-31.5-60.5t-81-124-106.5-158.5-140.5-205-103.5-149q-20-28-38.5-28t-30.5 16l-492 684q-6 7-6 19t11 21 23.5 9 22.5-12l469-651 445 653q8 14 23 14t25.5-9 10.5-19z"/><glyph glyph-name="z" unicode="z" horiz-adv-x="1441" d="M1239 1259q0-12-8-20l-883-1176h842q33 0 33-32 0-14-10.5-22.5t-22.5-8.5h-903q-12 0-24.5 9t-12.5 23 8 21l922 1225q8 12 23 12t25.5-9.5 10.5-21.5zm-1239 356.5q0 22.5 33 22.5h1173q12 0 22.5-8t10.5-20-2-15.5-6-11.5l-1168-1567q-10-12-24-12t-24.5 9.5-10.5 19.5 45 73.5 120 165 171 231.5 198.5 267 203 271.5 210.5 279 191 254.5l-1110-2q-14 0-23.5 10t-9.5 32.5z"/><glyph glyph-name="_124"/><glyph glyph-name="_125"/><glyph glyph-name="_126"/><glyph glyph-name="_127"/><glyph glyph-name="_128"/><glyph glyph-name="_129"/><glyph glyph-name="_130"/><glyph glyph-name="_131"/><glyph glyph-name="_132"/><glyph glyph-name="_133"/><glyph glyph-name="_134"/><glyph glyph-name="_135"/><glyph glyph-name="_136"/><glyph glyph-name="_137"/><glyph glyph-name="_138"/><glyph glyph-name="_139"/><glyph glyph-name="_140"/><glyph glyph-name="_141"/><glyph glyph-name="_142"/><glyph glyph-name="_143"/><glyph glyph-name="_144"/><glyph glyph-name="_145"/><glyph glyph-name="_146"/><glyph glyph-name="_147"/><glyph glyph-name="_148"/><glyph glyph-name="_149"/><glyph glyph-name="_150"/><glyph glyph-name="_151"/><glyph glyph-name="_152"/><glyph glyph-name="_153"/><glyph glyph-name="_154"/><glyph glyph-name="_155"/><glyph glyph-name="_156"/><glyph glyph-name="_157"/><glyph glyph-name="_158"/><glyph glyph-name="_159"/><glyph glyph-name="_160"/><glyph glyph-name="_161"/><glyph glyph-name="_162"/><glyph glyph-name="_163"/><glyph glyph-name="_164"/><glyph glyph-name="_165"/><glyph glyph-name="_166"/><glyph glyph-name="_167"/><glyph glyph-name="_168"/><glyph glyph-name="_169"/><glyph glyph-name="_170"/><glyph glyph-name="_171"/><glyph glyph-name="_172"/><glyph glyph-name="_173"/><glyph glyph-name="_174"/><glyph glyph-name="_175"/><glyph glyph-name="_176"/><glyph glyph-name="_177"/><glyph glyph-name="_178"/><glyph glyph-name="_179"/><glyph glyph-name="_180"/><glyph glyph-name="_181"/><glyph glyph-name="_182"/><glyph glyph-name="_183"/><glyph glyph-name="_184"/><glyph glyph-name="_185"/><glyph glyph-name="_186"/><glyph glyph-name="_187"/><glyph glyph-name="_188"/><glyph glyph-name="_189"/><glyph glyph-name="_190"/><glyph glyph-name="_191"/><glyph glyph-name="_192"/><glyph glyph-name="_193"/><glyph glyph-name="_194"/><glyph glyph-name="_195"/><glyph glyph-name="_196"/><glyph glyph-name="_197"/><glyph glyph-name="_198"/><glyph glyph-name="_199"/><glyph glyph-name="_200"/><glyph glyph-name="_201"/><glyph glyph-name="_202"/><glyph glyph-name="_203"/><glyph glyph-name="_204"/><glyph glyph-name="_205"/><glyph glyph-name="_206"/><glyph glyph-name="_207"/><glyph glyph-name="_208"/><glyph glyph-name="_209"/><glyph glyph-name="_210"/><glyph glyph-name="_211"/><glyph glyph-name="_212"/><glyph glyph-name="_213"/><glyph glyph-name="_214"/><glyph glyph-name="_215"/><glyph glyph-name="_216"/><glyph glyph-name="_217"/><glyph glyph-name="_218"/><glyph glyph-name="_219"/><glyph glyph-name="_220"/><glyph glyph-name="_221"/><glyph glyph-name="_222"/><glyph glyph-name="_223"/><glyph glyph-name="_224"/><glyph glyph-name="_225"/><glyph glyph-name="_226"/><glyph glyph-name="_227"/><glyph glyph-name="_228"/><glyph glyph-name="_229"/><glyph glyph-name="_230"/><glyph glyph-name="_231"/><glyph glyph-name="_232"/><glyph glyph-name="_233"/><glyph glyph-name="_234"/><glyph glyph-name="_235"/><glyph glyph-name="_236"/><glyph glyph-name="_237"/><glyph glyph-name="_238"/><glyph glyph-name="_239"/><glyph glyph-name="_240"/><glyph glyph-name="_241"/><glyph glyph-name="_242"/><glyph glyph-name="_243"/><glyph glyph-name="_244"/><glyph glyph-name="_245"/><glyph glyph-name="_246"/><glyph glyph-name="_247"/><glyph glyph-name="_248"/><glyph glyph-name="_249"/><glyph glyph-name="_250"/><glyph glyph-name="_251"/><glyph glyph-name="_252"/><glyph glyph-name="_253"/><glyph glyph-name="_254"/><glyph glyph-name="_255"/><glyph glyph-name="_44" horiz-adv-x="542" d="M301 4v29q-4 20 18 24 25 0 25-20 10-78-43-124t-76-46q-24 0-30 16-4 23 16 29 65 14 77.5 51t12.5 41z"/><glyph glyph-name="_46" horiz-adv-x="456" d="M203 49q0 10 9 19.5t19 9.5q29 0 29-29t-28.5-29-28.5 29z"/><glyph glyph-name="_91"/><glyph glyph-name="_262"/></font>
</defs>
</svg>
